<?xml version="1.0" encoding="UTF-8"?>
<svg width="493px" height="116px" viewBox="0 0 493 116" version="1.1" xmlns="http://www.w3.org/2000/svg" xmlns:xlink="http://www.w3.org/1999/xlink">
    <!-- Generator: Sketch 57.1 (83088) - https://sketch.com -->
    <title>footer-logo</title>
    <desc>Created with Sketch.</desc>
    <g id="footer-logo" stroke="none" stroke-width="1" fill="none" fill-rule="evenodd">
        <g id="logo" fill="#FFFFFF">
            <path d="M421.3,16.91 C410.14,12.19 393.55,3.56 387.48,0.36 L376.48,0.36 L376.48,92.83 C379.346426,91.3706074 381.957024,89.4557185 384.21,87.16 C395.71,73.81 408.61,61.82 420.16,59.02 C422.99,57.16 424.59,60.84 424.59,60.84 C426.414109,56.7378739 427.72081,52.4247533 428.48,48 C429.65,41.42 430.03,33.79 430.64,27.89 C431.16,22.82 432,19 432,19 C432,19 428,19.75 421.3,16.91 Z M477.08,0.36 C475.41,4.75 471.66,14.17 470.18,14.27 C469.26,14.34 465.66,12.42 462.57,8.65 C460.542281,6.05638251 458.75806,3.28129923 457.24,0.36 L417.44,0.36 C421.78,1.59 429,2.18 437.8,7 C448.46,12.79 459.63,23.09 466.55,26.66 C468.575915,27.7582436 470.785597,28.4767292 473.07,28.78 C473.07,28.78 475.14,24.92 476.52,24.1 C477.65,23.42 488.72,27.66 492.65,29.2 L492.65,0.36 L477.08,0.36 Z" id="Shape"></path>
            <path d="M445.93,90 C439.12959,89.395065 432.419908,88.0195802 425.93,85.9 C427.086694,84.8087616 428.159717,83.6321129 429.14,82.38 C429.734241,81.5479312 430.227688,80.6483133 430.61,79.7 L429.92,79.01 C422.442009,85.2783968 414.56184,91.0507294 406.33,96.29 C396.755564,102.061659 386.764603,107.112292 376.44,111.4 L376.44,115.66 L465.44,115.66 C466.61,111.72 470.11,100.3 473.12,94.35 C474.38,91.85 477.99,91.41 477.99,91.41 L477.85,90.31 C467.21288,90.8199625 456.555209,90.7164576 445.93,90 L445.93,90 Z M482.73,39.31 C476.73,38.56 469.91,37.31 469.91,37.31 C469.91,37.31 464.64,44 459,50.58 C452.5,58.17 445.51,65.79 445.51,65.79 L492.65,79.27 L492.65,40 C489.33392,39.9422014 486.022949,39.7152397 482.73,39.32 L482.73,39.31 Z M492.65,115.66 L492.65,94.06 L479.57,115.66 L492.65,115.66 Z" id="Shape"></path>
            <path d="M0.56,40.1 L9.06,40.1 C15.58,40.1 20.06,42.21 20.06,48.02 C20.06,52.34 17.54,54.5 13.58,55.49 L13.58,55.58 C17.85,55.94 20.87,58.73 20.87,63.14 C20.87,69.89 15.29,71.51 8.87,71.51 L0.56,71.51 L0.56,40.1 Z M5.06,53.51 L7.53,53.51 C11.89,53.51 15.58,53.11 15.58,48.51 C15.58,44.78 12.39,43.83 9.78,43.83 L5.06,43.83 L5.06,53.51 Z M5.06,67.82 L8.43,67.82 C12.43,67.82 16.12,66.97 16.12,62.74 C16.12,57.88 11.85,57.2 7.98,57.2 L5.06,57.2 L5.06,67.82 Z" id="Shape" fill-rule="nonzero"></path>
            <path d="M36.34,48 C43.34,48 47.99,53 47.99,60 C47.99,66.57 43.22,72 36.34,72 C29.46,72 24.64,66.56 24.64,60 C24.64,53.06 29.32,48 36.34,48 Z M36.34,68.61 C41.29,68.61 43.49,64.11 43.49,60.02 C43.49,55.66 40.83,51.43 36.34,51.43 C31.85,51.43 29.14,55.66 29.14,60.02 C29.14,64.13 31.34,68.63 36.34,68.63 L36.34,68.61 Z" id="Shape" fill-rule="nonzero"></path>
            <path d="M52.7,67 C54.3036958,67.9754726 56.1253013,68.5357023 58,68.63 C59.94,68.63 62.32,67.82 62.32,65.35 C62.32,61.16 52.38,61.52 52.38,55.09 C52.38,50.32 55.94,48.03 60.48,48.03 C62.2721608,48.0608187 64.0491859,48.3642955 65.75,48.93 L65.39,52.62 C63.9929743,51.9549049 62.4834902,51.5580293 60.94,51.45 C58.78,51.45 56.94,52.35 56.94,54.24 C56.94,58.92 66.88,57.57 66.88,64.9 C66.88,69.8 62.97,72.05 58.88,72.05 C56.7082465,72.155686 54.5440471,71.7228461 52.58,70.79 L52.7,67 Z" id="Path" fill-rule="nonzero"></path>
            <path d="M85.86,52 L79.79,52 L79.79,64.54 C79.79,67.19 81.41,68.63 83.34,68.63 C84.3584678,68.6467778 85.3595918,68.3652117 86.22,67.82 L86.22,71.42 C85.0548619,71.7952826 83.8433399,72.007299 82.62,72.05 C78.25,72.05 75.56,69.98 75.56,65.39 L75.56,52 L70.38,52 L70.38,48.56 L75.55,48.56 L75.55,43.25 L79.78,41.9 L79.78,48.56 L85.85,48.56 L85.86,52 Z" id="Path" fill-rule="nonzero"></path>
            <path d="M101.84,48 C108.84,48 113.49,53 113.49,60 C113.49,66.57 108.72,72 101.84,72 C94.96,72 90.14,66.56 90.14,60 C90.14,53.06 94.82,48 101.84,48 Z M101.84,68.61 C106.79,68.61 108.99,64.11 108.99,60.02 C108.99,55.66 106.33,51.43 101.84,51.43 C97.35,51.43 94.64,55.66 94.64,60.02 C94.64,64.13 96.85,68.63 101.84,68.63 L101.84,68.61 Z" id="Shape" fill-rule="nonzero"></path>
            <path d="M118.92,48.56 L123,48.56 L123,52.21 L123.09,52.21 C124.35,49.6 127.41,48.02 130.6,48.02 C136.54,48.02 139.19,51.71 139.19,57.87 L139.19,71.51 L135,71.51 L135,59.63 C135,54.28 133.83,51.63 130.14,51.44 C125.32,51.44 123.14,55.31 123.14,60.89 L123.14,71.51 L118.91,71.51 L118.92,48.56 Z" id="Path" fill-rule="nonzero"></path>
            <path d="M149.33,40.1 L158.6,40.1 C167.91,40.1 175.34,45.86 175.34,55.53 C175.34,66.06 168.95,71.53 158.6,71.53 L149.33,71.53 L149.33,40.1 Z M153.83,67.55 L158.55,67.55 C166.29,67.55 170.55,63.82 170.55,55.72 C170.55,48.39 165.55,44.07 159.08,44.07 L153.82,44.07 L153.83,67.55 Z" id="Shape" fill-rule="nonzero"></path>
            <path d="M180.22,77.72 C180.863585,77.9444378 181.538549,78.0659314 182.22,78.08 C186,78.08 187.22,72.86 187.22,72.41 C187.032847,71.5746988 186.761458,70.7605327 186.41,69.98 L178.63,48.56 L183.26,48.56 L189.42,67.56 L189.51,67.56 L195.81,48.56 L200.09,48.56 L191.65,72 C190.07,76.41 188.41,81.49 182.83,81.49 C181.86182,81.4873224 180.896572,81.3834242 179.95,81.18 L180.22,77.72 Z" id="Path" fill-rule="nonzero"></path>
            <path d="M204.93,48.56 L209,48.56 L209,52.21 L209.09,52.21 C210.35,49.6 213.41,48.02 216.6,48.02 C222.54,48.02 225.19,51.71 225.19,57.87 L225.19,71.51 L221,71.51 L221,59.63 C221,54.28 219.83,51.63 216.14,51.44 C211.32,51.44 209.14,55.31 209.14,60.89 L209.14,71.51 L204.91,71.51 L204.93,48.56 Z" id="Path" fill-rule="nonzero"></path>
            <path d="M233.26,50.18 C235.533445,48.7761525 238.148138,48.0221803 240.82,48 C247.39,48 250.04,51.24 250.04,57.49 L250.04,67 C250.006024,68.5022866 250.066142,70.0052267 250.22,71.5 L246.22,71.5 L246.22,68.5 L246.13,68.5 C244.482012,70.768736 241.823202,72.0813129 239.02,72.01 C234.07,72.01 230.61,69.85 230.61,64.86 C230.61,59.1 236.91,57.3 241.27,57.3 C242.94,57.3 244.1,57.3 245.77,57.39 C245.77,53.39 244.33,51.39 240.1,51.39 C237.680428,51.4012031 235.33484,52.2253287 233.44,53.73 L233.26,50.18 Z M245.81,60.57 C244.91,60.57 244.01,60.48 243.11,60.48 C240.82,60.48 235.11,60.84 235.11,64.89 C235.11,67.32 237.45,68.62 239.39,68.62 C243.57,68.62 245.78,66.01 245.78,62.62 L245.81,60.57 Z" id="Shape" fill-rule="nonzero"></path>
            <path d="M256.65,48.56 L260.65,48.56 L260.65,51.89 L260.74,51.89 C262.32,49.24 264.61,48 268,48 C270.904399,47.9362883 273.526624,49.7300186 274.52,52.46 C275.886872,49.7812137 278.613416,48.068483 281.62,48 C287.47,48 289.62,51.78 289.62,56.77 L289.62,71.51 L285.39,71.51 L285.39,57.83 C285.39,55 284.72,51.44 281.3,51.44 C276.98,51.44 275.3,55.67 275.3,59.94 L275.3,71.51 L271,71.51 L271,57.83 C271,55 270.33,51.44 266.91,51.44 C262.59,51.44 260.91,55.67 260.91,59.94 L260.91,71.51 L256.68,71.51 L256.65,48.56 Z" id="Path" fill-rule="nonzero"></path>
            <path d="M301.49,43.43 L296.72,43.43 L296.72,38.66 L301.49,38.66 L301.49,43.43 Z M297,48.56 L301.23,48.56 L301.23,71.51 L297,71.51 L297,48.56 Z" id="Shape" fill-rule="nonzero"></path>
            <path d="M323.29,52.43 C321.83884,51.8036763 320.280185,51.4641002 318.7,51.43 C313.97,51.43 311.32,55.66 311.32,60.02 C311.32,64.11 313.53,68.61 318.97,68.61 C320.574239,68.5938774 322.143774,68.140994 323.51,67.3 L323.83,71.08 C322.145904,71.7636295 320.336436,72.0839498 318.52,72.02 C311.59,72.02 306.82,66.58 306.82,60.02 C306.82,53.02 311.5,48.02 318.52,48.02 C320.267962,48.0347028 322.00142,48.3388181 323.65,48.92 L323.29,52.43 Z" id="Path" fill-rule="nonzero"></path>
            <path d="M329,67 C330.592848,67.965646 332.399874,68.5221824 334.26,68.62 C336.2,68.62 338.58,67.81 338.58,65.34 C338.58,61.15 328.64,61.51 328.64,55.08 C328.64,50.31 332.19,48.02 336.74,48.02 C338.5288,48.0518305 340.302377,48.3552943 342,48.92 L341.64,52.61 C340.243056,51.944681 338.733529,51.5477941 337.19,51.44 C335.03,51.44 333.14,52.34 333.14,54.23 C333.14,58.91 343.09,57.56 343.09,64.89 C343.09,69.79 339.17,72.04 335.09,72.04 C332.918246,72.145686 330.754047,71.7128461 328.79,70.78 L329,67 Z" id="Path" fill-rule="nonzero"></path>
        </g>
    </g>
</svg>